<svg width="350" height="350" xmlns="http://www.w3.org/2000/svg" version="1.1">
 <g>
  <title>Layer 1</title>
  <path d="m264.90234,84.77734c21.90754,-0.79601 47.89641,5.09443 64.72266,19.72266c10.86553,10.66532 16.47016,22.03658 16.6582,37.26757c0.0145,1.87849 0.0145,1.87849 0.0293,3.79493c0.029,1.22525 0.058,2.4505 0.08789,3.71289c0.10972,15.84196 -6.34935,28.00255 -17.02149,39.45117c-8.65725,8.27344 -8.65725,8.27344 -14.3789,8.27344c0.39832,0.73863 0.79664,1.47726 1.20703,2.23828c7.31795,14.01271 10.74632,28.96484 6.98437,44.70703c-4.5186,13.97796 -13.41803,26.10622 -26.49731,32.97314c-12.70289,6.45776 -24.83719,6.69391 -38.44409,2.33545c-8.38794,-3.23621 -14.62033,-8.16522 -21.1211,-14.30078c-2.17106,-2.09227 -2.17106,-2.09227 -5.1289,-3.95312c0,-0.66 0,-1.32 0,-2c-0.66,0 -1.32,0 -2,0c-1.64601,-1.79106 -3.13759,-3.5812 -4.625,-5.5c-0.478,-0.61456 -0.956,-1.22912 -1.44849,-1.86231c-18.08908,-23.70785 -35.04497,-50.40454 -48.19605,-77.16504c-5.20424,-10.44373 -10.50199,-20.90635 -16.76953,-30.75781c-0.96093,-1.71484 -0.96093,-1.71484 -0.96093,-3.71484c3.87202,-2.45745 8.109,-2.67965 12.5625,-3.125c0.81066,-0.08275 1.62131,-0.16549 2.45654,-0.25074c14.36665,-1.39536 27.15526,0.25668 40.98096,4.37574c-1.51671,-0.79955 -3.03862,-1.58922 -4.5625,-2.375c-0.84692,-0.44086 -1.69383,-0.88172 -2.56641,-1.33594c-7.69963,-3.45698 -14.37298,-3.56644 -22.74609,-3.47656c-1.13309,0.00064 -2.26618,0.00129 -3.4336,0.00195c-6.30865,0.0329 -12.43732,0.35565 -18.6914,1.18555c0.11349,-3.74529 1.34845,-5.66316 3.875,-8.25c13.14991,-12.37007 27.53883,-21.77359 43.8125,-29.4375c0.60545,-0.28553 1.21091,-0.57106 1.83471,-0.86524c7.08698,-3.27992 14.15726,-5.83316 21.79029,-7.50976c0.76836,-0.16919 1.53672,-0.33838 2.32837,-0.5127c9.68044,-2.03263 19.41545,-2.89211 29.26147,-3.64746z" fill="#F0D247" id="svg_1"/>
  <path d="m152,144c1.77734,0.07813 1.77734,0.07813 4,1c1.38061,2.25079 2.47787,4.36015 3.5625,6.75c0.70239,1.46973 1.40693,2.93843 2.11328,4.40625c0.37464,0.78633 0.74927,1.57266 1.13526,2.38281c7.60944,15.75015 16.39093,30.74831 25.52929,45.646c17.4056,28.47289 35.99024,64.44252 28.93311,98.9126c-0.91159,3.40549 -1.97795,6.62526 -3.27344,9.90234c-0.35063,0.89848 -0.70125,1.79695 -1.0625,2.72266c-5.48105,12.31333 -15.55235,20.47398 -27.5625,26.08984c-12.7214,4.47605 -25.84664,4.71315 -38.26172,-1.18359c-10.15211,-6.03913 -18.50657,-14.90005 -25.11328,-24.62891c-0.47437,0.59813 -0.94875,1.19625 -1.4375,1.8125c-6.48994,5.54019 -14.38336,5.78395 -22.64063,5.60156c-9.84249,-1.03914 -18.63911,-4.7382 -25.92187,-11.41406c-0.79922,-0.67418 -1.59844,-1.34836 -2.42188,-2.04297c-7.5962,-6.87112 -11.6482,-14.67386 -15.57812,-23.95703c-0.37125,-0.85207 -0.7425,-1.70414 -1.125,-2.58203c-5.79831,-15.91747 -3.82253,-37.13872 2.96631,-52.29639c4.06595,-8.52663 8.8694,-16.03872 15.15869,-23.12158c0.75668,-0.85336 1.51336,-1.70672 2.29297,-2.58594c1.52291,-1.69892 3.05384,-3.39069 4.59375,-5.07422c1.90857,-2.11319 3.73649,-4.27092 5.55078,-6.46484c1.26844,-1.42312 1.26844,-1.42312 2.5625,-2.875c0.66,0 1.32,0 2,0c0,-0.66 0,-1.32 0,-2c1.47095,-1.49146 1.47095,-1.49146 3.50391,-3.20703c0.73363,-0.62342 1.46727,-1.24685 2.22314,-1.88916c0.75007,-0.62826 1.50015,-1.25652 2.27295,-1.90381c0.65339,-0.55736 1.30679,-1.11472 1.97998,-1.68896c9.67265,-8.22803 19.6537,-15.8344 30.13403,-23.0022c1.92276,-1.33436 3.80759,-2.71358 5.69458,-4.0979c2.9548,-2.04702 4.66877,-2.8907 8.19141,-3.21094c-0.98135,3.56856 -2.19595,6.37988 -4.3125,9.375c-4.06786,6.17444 -5.67939,13.5838 -7.6875,20.625c0.48469,-1.01578 0.96937,-2.03156 1.46875,-3.07812c5.7407,-11.85738 12.43707,-22.49756 20.53125,-32.92188z" fill="#9CC878" id="svg_2"/>
  <path d="m91,75c1.32451,0.42539 1.32451,0.42539 2.67578,0.85938c23.05658,8.42863 41.62206,30.6104 52.32422,52.14062c0,1.32 0,2.64 0,4c-7.5283,-2.77358 -7.5283,-2.77358 -11.125,-4.5c-6.29272,-2.76587 -14.01438,-4.5 -20.875,-4.5c1.12535,0.34031 2.2507,0.68062 3.41016,1.03125c10.56144,3.29857 20.02732,7.41177 29.58984,12.96875c-0.13672,1.78906 -0.13672,1.78906 -1,4c-2.45703,1.64844 -2.45703,1.64844 -5.8125,3.375c-13.39836,7.22587 -25.59566,16.55029 -37.6875,25.75c-1.04958,0.79797 -1.04958,0.79797 -2.12036,1.61206c-2.73775,2.10979 -5.28733,4.16971 -7.72339,6.63013c-1.65625,1.63281 -1.65625,1.63281 -3.65625,1.63281c0,0.66 0,1.32 0,2c-1.22266,1.19922 -1.22266,1.19922 -3.0625,2.6875c-4.51189,3.82778 -8.69252,7.9455 -12.875,12.125c-0.6749,0.67055 -1.34981,1.34111 -2.04517,2.03198c-0.63349,0.63527 -1.26698,1.27053 -1.91967,1.92505c-0.8584,0.86009 -0.8584,0.86009 -1.73413,1.73755c-1.46416,1.46669 -1.46416,1.46669 -2.36353,3.49292c-0.66,0 -1.32,0 -2,0c-0.24105,0.51305 -0.48211,1.02609 -0.73047,1.55469c-1.70684,3.28763 -3.62308,6.42952 -5.58203,9.57031c-0.56751,0.94939 -0.56751,0.94939 -1.14648,1.91797c-2.39422,3.81616 -4.09833,5.9174 -8.54102,6.95703c-11.86972,1.33633 -23.30994,-2.27929 -32.625,-9.6875c-0.78375,-0.76313 -1.5675,-1.52625 -2.375,-2.3125c0,-0.66 0,-1.32 0,-2c-0.66,0 -1.32,0 -2,0c-1.40234,-1.87109 -1.40234,-1.87109 -2.9375,-4.4375c-0.50402,-0.82371 -1.00805,-1.64742 -1.52734,-2.49609c-3.57033,-7.13158 -5.04959,-13.54249 -4.91016,-21.50391c0.0087,-0.83185 0.0174,-1.6637 0.02637,-2.52075c0.14521,-6.08181 0.87993,-11.43106 3.34863,-17.04175c0.26684,-0.66645 0.53367,-1.33289 0.80859,-2.01953c4.12781,-9.30133 11.35539,-16.68665 19.19141,-22.98047c-1.32,-0.33 -2.64,-0.66 -4,-1c-3.63896,-13.10025 -4.43023,-26.29416 2.39844,-38.59375c5.45906,-8.20192 12.23762,-14.28659 20.60156,-19.40625c0.63293,-0.39961 1.26586,-0.79922 1.91797,-1.21094c12.63211,-7.16448 32.32548,-8.49986 46.08203,-3.78906z" fill="#EC4D4C" id="svg_3"/>
  <path d="m166.8125,4.75c0.76893,-0.02063 1.53785,-0.04125 2.33008,-0.0625c8.13694,-0.05493 14.38249,2.17038 20.38086,7.70313c2.93525,3.19927 4.3824,6.1656 4.66406,10.48437c-0.09281,1.05187 -0.09281,1.05187 -0.1875,2.125c0.27457,-0.90686 0.27457,-0.90686 0.55469,-1.83203c2.12967,-3.1945 5.04261,-3.82199 8.57031,-4.85547c0.71285,-0.21278 1.4257,-0.42555 2.16016,-0.64478c16.96843,-4.73975 35.88565,-3.56238 51.71484,4.33228c12.54075,7.22687 21.94857,15.7199 26.4375,29.875c1.81685,9.33285 0.18757,17.47226 -5.0625,25.29688c-1.375,1.82812 -1.375,1.82812 -2.375,2.82812c-2.01834,0.12254 -4.04068,0.17988 -6.0625,0.21094c-1.26376,0.0261 -2.52753,0.0522 -3.82959,0.0791c-0.67102,0.01325 -1.34203,0.02651 -2.03339,0.04016c-40.22853,0.86874 -73.26235,14.38075 -102.07452,42.6698c-1.71442,1.96489 -3.3539,3.97643 -5,6c-0.66,0.66 -1.32,1.32 -2,2c-2.46757,-2.46757 -2.25736,-3.88462 -2.27783,-7.25586c0.00918,-0.71994 0.01837,-1.43988 0.02783,-2.18164c0.00532,-0.74701 0.01063,-1.49402 0.01611,-2.26367c0.09483,-5.79501 0.51455,-11.53499 1.10889,-17.29883c0.07831,-0.76369 0.15662,-1.52738 0.2373,-2.31421c0.60335,-5.322 1.63402,-10.48033 2.8877,-15.68579c-5.14129,12.69624 -7.35174,22.26277 -7,36c-0.99,0.33 -1.98,0.66 -3,1c-0.66645,-1.07637 -1.33289,-2.15273 -2.01953,-3.26172c-9.69327,-15.8326 -9.69327,-15.8326 -22.74268,-28.81518c-7.72748,-6.04649 -7.72748,-6.04649 -9.17236,-11.35987c-0.25649,-3.88797 -0.1761,-7.61212 0.05957,-11.50073c0.02449,-1.29357 0.04898,-2.58715 0.07422,-3.91992c0.24367,-7.76224 1.34126,-14.78226 3.80078,-22.14258c0.43385,-1.31231 0.43385,-1.31231 0.87646,-2.65112c3.51806,-10.18881 9.97711,-18.6529 19.12354,-24.34888c0.7902,-0.50273 1.58039,-1.00547 2.39453,-1.52344c2.65463,-1.50442 5.23396,-2.57717 8.10547,-3.60156c0.91781,-0.33258 1.83563,-0.66516 2.78125,-1.00781c5.56451,-1.77489 10.73199,-2.07888 16.53125,-2.11719z" fill="#EE8236" id="svg_4"/>
  <path d="m119,315c0.33,0.99 0.66,1.98 1,3c-6.37722,4.25148 -12.35035,5.25929 -19.9375,5.125c-0.68385,-0.00902 -1.3677,-0.01805 -2.07227,-0.02734c-1.66356,-0.02327 -3.32695,-0.05913 -4.99023,-0.09766c0,-0.33 0,-0.66 0,-1c0.98227,-0.03867 0.98227,-0.03867 1.98437,-0.07812c6.6207,-0.41146 12.26587,-1.78282 18.48438,-4.08204c2.53125,-0.83984 2.53125,-0.83984 5.53125,-0.83984c0,-0.66 0,-1.32 0,-2z" fill="#F6FBEF" id="svg_31"/>
 </g>

</svg>