<?xml version="1.0" encoding="UTF-8" standalone="no"?>
<svg
   xmlns:dc="http://purl.org/dc/elements/1.1/"
   xmlns:cc="http://creativecommons.org/ns#"
   xmlns:rdf="http://www.w3.org/1999/02/22-rdf-syntax-ns#"
   xmlns:svg="http://www.w3.org/2000/svg"
   xmlns="http://www.w3.org/2000/svg"
   viewBox="0 0 302.75333 60.021465"
   height="60.021465"
   width="302.75333"
   xml:space="preserve"
   id="svg2"
   version="1.1"><metadata
     id="metadata8"><rdf:RDF><cc:Work
         rdf:about=""><dc:format>image/svg+xml</dc:format><dc:type
           rdf:resource="http://purl.org/dc/dcmitype/StillImage" /></cc:Work></rdf:RDF></metadata><defs
     id="defs6"><clipPath
       id="clipPath18"
       clipPathUnits="userSpaceOnUse"><path
         id="path16"
         d="M 0,45.016 H 227.065 V 0 H 0 Z" /></clipPath></defs><g
     transform="matrix(1.3333333,0,0,-1.3333333,0,60.021467)"
     id="g10"><g
       id="g12"><g
         clip-path="url(#clipPath18)"
         id="g14"><g
           transform="translate(6.8652,6.169)"
           id="g20"><path
             id="path22"
             style="fill:#424242;fill-opacity:1;fill-rule:nonzero;stroke:none"
             d="M 0,0 C -0.038,0.092 -0.081,0.189 -0.114,0.282 H 23.784 C 23.752,0.189 23.708,0.092 23.671,0 23.665,-0.011 23.665,-0.016 23.66,-0.027 23.654,-0.038 23.649,-0.043 23.649,-0.054 23.638,-0.076 23.627,-0.097 23.617,-0.119 23.579,-0.2 23.541,-0.281 23.503,-0.362 c -0.033,-0.071 -0.07,-0.141 -0.108,-0.206 -0.038,-0.07 -0.076,-0.135 -0.114,-0.2 -0.038,-0.065 -0.071,-0.13 -0.114,-0.19 -0.032,-0.059 -0.07,-0.119 -0.108,-0.173 -0.005,-0.005 -0.005,-0.011 -0.011,-0.016 -0.005,-0.011 -0.016,-0.021 -0.022,-0.033 -0.053,-0.081 -0.113,-0.162 -0.172,-0.237 -0.028,-0.039 -0.055,-0.077 -0.087,-0.109 -0.059,-0.081 -0.124,-0.162 -0.195,-0.238 -0.054,-0.065 -0.114,-0.13 -0.173,-0.189 -0.081,-0.092 -0.173,-0.184 -0.265,-0.271 -2.457,-2.316 -10.299,-2.359 -10.299,-2.359 0,0 -7.841,0.043 -10.298,2.359 -0.092,0.087 -0.184,0.179 -0.266,0.271 -0.059,0.059 -0.118,0.124 -0.172,0.189 -0.071,0.076 -0.136,0.157 -0.195,0.238 -0.033,0.032 -0.06,0.07 -0.087,0.109 -0.06,0.075 -0.119,0.156 -0.173,0.237 -0.005,0.012 -0.017,0.022 -0.022,0.033 -0.005,0.005 -0.005,0.011 -0.011,0.016 -0.037,0.054 -0.075,0.114 -0.108,0.173 -0.043,0.06 -0.076,0.125 -0.113,0.19 -0.038,0.065 -0.076,0.13 -0.114,0.2 C 0.238,-0.503 0.2,-0.433 0.167,-0.362 0.13,-0.281 0.092,-0.2 0.054,-0.119 c -0.011,0.022 -0.022,0.043 -0.033,0.065 0,0.011 -0.005,0.016 -0.01,0.027 C 0.005,-0.016 0.005,-0.011 0,0" /></g><g
           transform="translate(31.1475,9.4541)"
           id="g24"><path
             id="path26"
             style="fill:#d89e93;fill-opacity:1;fill-rule:nonzero;stroke:none"
             d="m 0,0 c -0.871,-0.189 -2.046,-0.314 -3.626,-0.314 -3.728,0 -5.109,0.232 -5.855,0.623 h -0.006 c -0.314,0.162 -0.519,0.351 -0.741,0.557 -0.752,0.709 -0.709,2.078 -0.991,4.297 -0.281,2.224 -1.228,2.224 -1.228,2.224 0,0 -0.947,0 -1.228,-2.224 -0.282,-2.219 -0.239,-3.588 -0.991,-4.297 -0.222,-0.206 -0.427,-0.395 -0.741,-0.557 h -0.006 c -0.746,-0.391 -2.127,-0.623 -5.855,-0.623 -1.58,0 -2.754,0.125 -3.626,0.314 -0.027,0.005 -0.048,0.011 -0.076,0.016 0,-0.049 0,-0.102 0.006,-0.162 0,-0.065 0,-0.13 0.005,-0.2 0,-0.054 0.006,-0.114 0.011,-0.174 0.006,-0.097 0.016,-0.205 0.027,-0.313 0.005,-0.071 0.016,-0.146 0.027,-0.228 0.017,-0.119 0.038,-0.249 0.06,-0.378 0.022,-0.114 0.043,-0.233 0.07,-0.353 0,-0.005 0.005,-0.016 0.005,-0.021 0.087,-0.374 0.201,-0.774 0.363,-1.19 0.033,-0.093 0.076,-0.19 0.114,-0.282 0.005,-0.011 0.005,-0.016 0.011,-0.027 0.005,-0.011 0.01,-0.016 0.01,-0.027 0.011,-0.022 0.022,-0.043 0.033,-0.065 0.038,-0.081 0.076,-0.162 0.113,-0.243 0.033,-0.071 0.071,-0.141 0.109,-0.206 0.038,-0.07 0.075,-0.135 0.113,-0.2 0.038,-0.065 0.071,-0.13 0.114,-0.19 0.032,-0.059 0.071,-0.119 0.108,-0.173 0.005,-0.005 0.005,-0.011 0.011,-0.016 0.005,-0.011 0.016,-0.022 0.022,-0.033 0.054,-0.081 0.113,-0.162 0.173,-0.238 0.027,-0.038 0.054,-0.076 0.087,-0.108 0.059,-0.081 0.124,-0.162 0.194,-0.238 0.055,-0.065 0.114,-0.13 0.173,-0.189 0.081,-0.093 0.174,-0.184 0.265,-0.271 2.457,-2.316 10.299,-2.36 10.299,-2.36 0,0 7.842,0.044 10.299,2.36 0.091,0.087 0.184,0.178 0.265,0.271 0.059,0.059 0.119,0.124 0.173,0.189 0.07,0.076 0.135,0.157 0.194,0.238 0.033,0.032 0.06,0.07 0.087,0.108 0.06,0.076 0.119,0.157 0.173,0.238 0.006,0.011 0.017,0.022 0.022,0.033 0.005,0.005 0.005,0.011 0.011,0.016 0.038,0.054 0.076,0.114 0.108,0.173 0.043,0.06 0.076,0.125 0.114,0.19 0.038,0.065 0.076,0.13 0.113,0.2 0.038,0.065 0.076,0.135 0.109,0.206 0.037,0.081 0.075,0.162 0.113,0.243 0.011,0.022 0.022,0.043 0.033,0.065 0,0.011 0.005,0.016 0.01,0.027 0.006,0.011 0.006,0.016 0.012,0.027 0.037,0.092 0.081,0.189 0.113,0.282 0.163,0.416 0.276,0.816 0.363,1.19 0,0.005 0.005,0.016 0.005,0.021 0.027,0.12 0.049,0.239 0.07,0.353 0.022,0.129 0.044,0.259 0.06,0.378 0.011,0.082 0.021,0.157 0.027,0.228 0.011,0.108 0.022,0.216 0.027,0.313 0.006,0.06 0.011,0.12 0.011,0.174 0.005,0.07 0.005,0.135 0.005,0.2 0.006,0.06 0.006,0.113 0.006,0.162 C 0.049,0.011 0.027,0.005 0,0 m -22.091,16.013 c -0.037,0.027 -0.059,0.038 -0.059,0.038 0.016,-0.119 0.032,-0.243 0.043,-0.363 0.092,-1.114 -0.146,-2.251 -0.406,-3.084 1.218,0.027 2.528,0.011 3.881,-0.071 4.015,-0.238 4.058,-1.656 6.185,-1.656 0.541,0 0.947,0.092 1.315,0.233 -5.704,1.705 -10.396,4.557 -10.959,4.903 m 15.597,-1.591 v -1.905 c 0.076,0.005 0.151,0.011 0.233,0.016 0.633,0.038 1.25,0.06 1.856,0.076 -1.499,0.936 -2.089,1.813 -2.089,1.813" /></g><g
           transform="translate(9.0566,25.4673)"
           id="g28"><path
             id="path30"
             style="fill:#ffffff;fill-opacity:1;fill-rule:nonzero;stroke:none"
             d="m 0,0 c -0.005,-0.108 -0.011,-0.217 -0.016,-0.325 -0.011,0.119 -0.027,0.244 -0.043,0.363 0,0 0.021,-0.011 0.059,-0.038" /></g><g
           transform="translate(15.7349,9.7627)"
           id="g32"><path
             id="path34"
             style="fill:#ba7870;fill-opacity:1;fill-rule:nonzero;stroke:none"
             d="m 0,0 c -3.074,-2.046 -7.614,-2.149 -9.032,-2.127 -0.135,0 -0.238,0 -0.314,0.005 0,0.006 -0.006,0.017 -0.006,0.022 -0.026,0.119 -0.048,0.238 -0.07,0.352 -0.021,0.13 -0.043,0.26 -0.059,0.379 -0.011,0.081 -0.022,0.157 -0.027,0.227 -0.011,0.108 -0.022,0.217 -0.028,0.314 -0.005,0.059 -0.01,0.119 -0.01,0.173 -0.006,0.071 -0.006,0.135 -0.006,0.2 -0.005,0.06 -0.005,0.114 -0.005,0.163 0.027,-0.006 0.049,-0.011 0.076,-0.017 0.871,-0.189 2.045,-0.314 3.626,-0.314 3.728,0 5.108,0.233 5.855,0.623" /></g><g
           transform="translate(31.2231,9.4702)"
           id="g36"><path
             id="path38"
             style="fill:#ba7870;fill-opacity:1;fill-rule:nonzero;stroke:none"
             d="m 0,0 c 0,-0.049 0,-0.103 -0.005,-0.162 0,-0.065 0,-0.13 -0.006,-0.2 0,-0.055 -0.005,-0.114 -0.01,-0.174 -0.006,-0.097 -0.017,-0.205 -0.028,-0.314 -0.005,-0.07 -0.016,-0.146 -0.027,-0.227 -0.016,-0.119 -0.038,-0.249 -0.059,-0.379 -0.022,-0.113 -0.044,-0.232 -0.071,-0.352 0,-0.005 -0.005,-0.016 -0.005,-0.021 -0.076,-0.005 -0.179,-0.005 -0.314,-0.005 -1.418,-0.022 -5.958,0.081 -9.032,2.126 0.746,-0.39 2.127,-0.622 5.855,-0.622 1.58,0 2.755,0.124 3.626,0.314 C -0.049,-0.011 -0.027,-0.005 0,0" /></g><g
           transform="translate(31.9482,26.4253)"
           id="g40"><path
             id="path42"
             style="fill:#b9543d;fill-opacity:1;fill-rule:nonzero;stroke:none"
             d="m 0,0 0.005,0.005 c 0.125,0.081 2.105,1.429 3.751,1.911 0,0 1.055,-3.448 0.032,-6.911 -0.709,0.119 -2.013,0.308 -3.691,0.449 -0.324,0.027 -0.665,0.054 -1.022,0.076 -1.857,1.401 -6.245,4.848 -8.285,7.658 0,0 -0.78,-3.61 -0.493,-6.657 0,0 -7.511,0.849 -15.515,8.144 0,0 0.411,-4.929 -0.985,-9.189 -0.244,-0.021 -0.477,-0.037 -0.704,-0.059 -0.341,-0.032 -0.671,-0.065 -0.974,-0.097 -0.119,-0.011 -0.233,-0.028 -0.346,-0.038 -0.179,-0.022 -0.347,-0.043 -0.509,-0.06 -0.357,-0.048 -0.677,-0.092 -0.952,-0.135 -0.222,0.92 -1.11,4.881 -0.855,9.065 v 0.005 0.005 c 0.162,2.749 0.828,5.591 2.489,7.728 0,0 1.629,-2.83 4.676,-4.318 l 0.005,0.005 c 0.092,0.287 3.209,9.416 18.129,9.416 0,0 -4.605,-2.689 -5.807,-8.572 0,0 7.084,3.545 16.365,2.268 C 5.314,10.699 0.141,6.375 0,0" /></g><g
           transform="translate(8.5698,34.0069)"
           id="g44"><path
             id="path46"
             style="fill:#ff6c4a;fill-opacity:1;fill-rule:nonzero;stroke:none"
             d="m 0,0 c 0,0 -2.44,-0.086 -4.697,1.423 0,0 -1.115,-0.968 -2.468,-4.838 v 0.006 c 0.163,2.749 0.828,5.59 2.489,7.727 0,0 1.629,-2.83 4.676,-4.318" /></g><g
           transform="translate(37.2627,37.124)"
           id="g48"><path
             id="path50"
             style="fill:#ff6c4a;fill-opacity:1;fill-rule:nonzero;stroke:none"
             d="m 0,0 c 0,0 -5.174,-4.324 -5.314,-10.699 -1.418,3.685 -0.726,8.22 -0.726,8.22 -5.362,-0.292 -8.528,-1.834 -10.331,-3.252 -1.693,-1.331 -2.191,-2.56 -2.191,-2.56 -0.584,0.985 -0.888,2.083 -1.012,3.193 -0.411,3.604 1.082,7.295 1.082,7.295 -4.508,-0.628 -9.968,-5.119 -10.195,-5.309 0.091,0.287 3.208,9.417 18.129,9.417 0,0 -4.606,-2.69 -5.807,-8.573 0,0 7.084,3.545 16.365,2.268" /></g><g
           transform="translate(18.7007,5.5274)"
           id="g52"><path
             id="path54"
             style="fill:#000000;fill-opacity:1;fill-rule:nonzero;stroke:none"
             d="M 0,0 C 0,0 1.7,-2.125 4.25,-1.275 6.801,-0.425 6.092,2.621 6.092,2.621 3.754,-0.283 0,0 0,0" /></g><g
           transform="translate(15.5562,18.0108)"
           id="g56"><path
             id="path58"
             style="fill:#abd3dd;fill-opacity:1;fill-rule:nonzero;stroke:none"
             d="m 0,0 c -0.52,1.229 -2.192,1.298 -2.192,1.298 h -4.205 -0.525 -2.83 c -0.151,0 -0.298,-0.005 -0.433,-0.021 -1.694,-0.152 -1.835,-1.191 -1.835,-1.526 0,-0.07 0.006,-0.108 0.006,-0.108 0,0 0.422,-3.539 1.272,-5.055 0.849,-1.51 2.365,-1.369 2.365,-1.369 h 2.981 2.966 c 1.228,0 1.797,1.104 1.797,1.104 0,0 0,0.006 0.005,0.016 0,0.016 0.005,0.033 0.011,0.055 0.005,0.021 0.011,0.043 0.022,0.07 0,0.027 0.01,0.054 0.016,0.086 0.016,0.065 0.032,0.141 0.054,0.228 C -0.249,-4.059 0.417,-0.991 0,0 M 16.04,1.298 H 12.685 8.48 c 0,0 -1.672,-0.069 -2.192,-1.298 -0.519,-1.229 0.633,-5.677 0.633,-5.677 0,0 0.569,-1.104 1.797,-1.104 h 2.711 3.237 c 0,0 1.515,-0.141 2.364,1.369 0.85,1.516 1.272,5.055 1.272,5.055 0,0 0.238,1.655 -2.262,1.655" /></g><g
           transform="translate(15.0312,12.728)"
           id="g60"><path
             id="path62"
             style="fill:#ffffff;fill-opacity:1;fill-rule:nonzero;stroke:none"
             d="M 0,0 C -0.021,-0.086 -0.038,-0.162 -0.054,-0.227 -0.06,-0.26 -0.07,-0.287 -0.07,-0.314 c -0.011,-0.027 -0.016,-0.048 -0.022,-0.07 -0.005,-0.022 -0.011,-0.038 -0.011,-0.054 -0.005,-0.011 -0.005,-0.017 -0.005,-0.017 0,0 -0.568,-1.104 -1.797,-1.104 H -4.871 C -8.28,1.423 -9.34,4.903 -9.66,6.5 c 0.136,0.016 0.282,0.021 0.433,0.021 h 2.831 C -5.336,4.454 -3.734,2.825 -2.403,1.71 -1.071,0.596 0,0 0,0" /></g><g
           transform="translate(32.5869,12.5386)"
           id="g64"><path
             id="path66"
             style="fill:#ffffff;fill-opacity:1;fill-rule:nonzero;stroke:none"
             d="m 0,0 c -0.85,-1.51 -2.365,-1.369 -2.365,-1.369 h -3.236 c -2.815,4.443 -2.95,8.079 -2.95,8.079 h 3.166 C -3.875,3.139 0,0 0,0" /></g><g
           transform="translate(55.9399,22.7959)"
           id="g68"><path
             id="path70"
             style="fill:#ffffff;fill-opacity:1;fill-rule:nonzero;stroke:none"
             d="M 0,0 H -1.16 V 6.16 H 0.05 C 2.61,6.16 3.89,5.14 3.89,3.11 3.89,1.04 2.59,0 0,0 m 3.35,-2.4 c 3.09,0.61 4.64,2.53 4.64,5.75 0,1.84 -0.61,3.3 -1.83,4.39 C 4.93,8.83 3.14,9.37 0.78,9.37 h -5.91 v -20.36 h 3.97 v 8.19 h 0.51 l 5.51,-8.19 h 4.89 z" /></g><g
           transform="translate(70.3799,20.1763)"
           id="g72"><path
             id="path74"
             style="fill:#ffffff;fill-opacity:1;fill-rule:nonzero;stroke:none"
             d="M 0,0 C 0.15,0.85 0.49,1.5 1.03,1.96 1.57,2.42 2.25,2.65 3.08,2.65 4.76,2.65 5.81,1.77 6.24,0 Z m 9.75,-1.86 c 0,2.2 -0.6,3.94 -1.79,5.23 C 6.76,4.65 5.1,5.3 2.97,5.3 0.83,5.3 -0.86,4.66 -2.09,3.38 c -1.23,-1.28 -1.85,-3 -1.85,-5.16 0,-2.1 0.65,-3.8 1.93,-5.07 1.29,-1.28 3.01,-1.92 5.17,-1.92 3.19,0 5.35,1.36 6.48,4.08 l -3.4,0.56 C 5.45,-5.31 4.41,-5.91 3.11,-5.91 c -1.03,0 -1.83,0.32 -2.4,0.95 -0.58,0.63 -0.87,1.5 -0.87,2.62 h 9.91 z" /></g><g
           transform="translate(91.6201,18.5562)"
           id="g76"><path
             id="path78"
             style="fill:#ffffff;fill-opacity:1;fill-rule:nonzero;stroke:none"
             d="M 0,0 C -0.57,0.58 -1.62,1.14 -3.17,1.68 -4.05,2 -4.63,2.25 -4.89,2.42 c -0.26,0.17 -0.39,0.42 -0.39,0.74 0,0.31 0.14,0.57 0.42,0.79 0.28,0.21 0.62,0.32 1.01,0.32 0.69,0 1.42,-0.29 2.19,-0.86 l 1.84,2.16 c -1.26,0.93 -2.7,1.4 -4.32,1.4 -1.35,0 -2.48,-0.39 -3.38,-1.16 -0.9,-0.77 -1.35,-1.79 -1.35,-3.05 0,-0.99 0.25,-1.75 0.76,-2.28 0.5,-0.53 1.54,-1.08 3.1,-1.64 0.85,-0.3 1.4,-0.56 1.65,-0.78 0.25,-0.22 0.38,-0.51 0.38,-0.89 0,-0.42 -0.17,-0.76 -0.49,-1.04 -0.32,-0.28 -0.72,-0.42 -1.19,-0.42 -1.04,0 -2.09,0.52 -3.13,1.57 l -1.92,-2.27 c 1.34,-1.46 3.01,-2.19 5.03,-2.19 1.62,0 2.94,0.45 3.98,1.34 1.03,0.89 1.55,2.03 1.55,3.41 C 0.85,-1.38 0.57,-0.57 0,0" /></g><g
           transform="translate(104.2998,15.8159)"
           id="g80"><path
             id="path82"
             style="fill:#ffffff;fill-opacity:1;fill-rule:nonzero;stroke:none"
             d="m 0,0 c -0.739,-0.73 -1.62,-1.09 -2.649,-1.09 -1.041,0 -1.931,0.36 -2.651,1.09 -0.72,0.73 -1.08,1.62 -1.08,2.66 0,0.98 0.38,1.83 1.12,2.56 0.75,0.72 1.62,1.09 2.611,1.09 C -1.62,6.31 -0.739,5.94 0,5.22 0.73,4.49 1.101,3.62 1.101,2.61 1.101,1.6 0.73,0.73 0,0 M 2.79,7.69 C 1.38,9 -0.43,9.66 -2.62,9.66 -4.82,9.66 -6.63,9 -8.06,7.7 -9.49,6.39 -10.209,4.73 -10.209,2.72 c 0,-2.11 0.689,-3.82 2.069,-5.15 1.37,-1.32 3.19,-1.98 5.44,-1.98 2.23,0 4.06,0.65 5.48,1.94 1.42,1.3 2.13,3 2.13,5.11 0,2.05 -0.71,3.73 -2.12,5.05" /></g><g
           transform="translate(120.8701,25.0361)"
           id="g84"><path
             id="path86"
             style="fill:#ffffff;fill-opacity:1;fill-rule:nonzero;stroke:none"
             d="m 0,0 v -7.5 c 0,-2 -0.9,-3 -2.7,-3 -1.779,0 -2.67,1 -2.67,3 V 0 h -3.731 v -8.12 c 0,-1.77 0.561,-3.13 1.661,-4.08 1.11,-0.95 2.69,-1.43 4.74,-1.43 2.06,0 3.63,0.48 4.74,1.43 1.109,0.95 1.66,2.31 1.66,4.08 L 3.7,0 Z" /></g><g
           transform="translate(135.3701,25.4761)"
           id="g88"><path
             id="path90"
             style="fill:#ffffff;fill-opacity:1;fill-rule:nonzero;stroke:none"
             d="m 0,0 c -1.64,0 -2.91,-0.81 -3.83,-2.43 v 1.99 h -3.73 v -13.23 h 3.73 v 6.35 c 0,2.65 1.05,3.97 3.16,3.97 0.61,0 1.2,-0.15 1.78,-0.46 l 0.51,3.48 C 1.06,-0.11 0.521,0 0,0" /></g><g
           transform="translate(145.3594,22.126)"
           id="g92"><path
             id="path94"
             style="fill:#ffffff;fill-opacity:1;fill-rule:nonzero;stroke:none"
             d="M 0,0 C 1.061,0 2.07,-0.37 3.031,-1.11 V 2.54 C 2,3.08 0.881,3.35 -0.319,3.35 c -2.071,0 -3.8,-0.68 -5.201,-2.04 -1.389,-1.36 -2.089,-3.05 -2.089,-5.06 0,-1.98 0.689,-3.64 2.06,-4.97 1.379,-1.33 3.1,-2 5.17,-2 1.119,0 2.25,0.26 3.41,0.78 v 3.65 C 2.07,-7.03 1.061,-7.4 0,-7.4 c -1.079,0 -1.979,0.35 -2.699,1.04 -0.721,0.69 -1.08,1.58 -1.08,2.66 0,1.08 0.359,1.97 1.08,2.66 C -1.979,-0.35 -1.079,0 0,0" /></g><g
           transform="translate(154.1602,20.1763)"
           id="g96"><path
             id="path98"
             style="fill:#ffffff;fill-opacity:1;fill-rule:nonzero;stroke:none"
             d="M 0,0 C 0.15,0.85 0.49,1.5 1.029,1.96 1.57,2.42 2.25,2.65 3.08,2.65 4.76,2.65 5.81,1.77 6.24,0 Z m 9.75,-1.86 c 0,2.2 -0.6,3.94 -1.79,5.23 C 6.76,4.65 5.1,5.3 2.97,5.3 0.83,5.3 -0.86,4.66 -2.09,3.38 c -1.23,-1.28 -1.85,-3 -1.85,-5.16 0,-2.1 0.65,-3.8 1.93,-5.07 1.289,-1.28 3.01,-1.92 5.17,-1.92 3.19,0 5.35,1.36 6.48,4.08 l -3.4,0.56 C 5.449,-5.31 4.41,-5.91 3.109,-5.91 c -1.029,0 -1.83,0.32 -2.399,0.95 -0.58,0.63 -0.87,1.5 -0.87,2.62 h 9.91 z" /></g><g
           transform="translate(172.7402,15.0259)"
           id="g100"><path
             id="path102"
             style="fill:#ffffff;fill-opacity:1;fill-rule:nonzero;stroke:none"
             d="m 0,0 h -1.7 v 5.64 h 1.479 C 1.14,5.64 2.08,5.49 2.619,5.18 3.52,4.64 3.97,3.86 3.97,2.83 3.97,0.94 2.65,0 0,0 m -1.7,13.93 h 1.19 c 2.01,0 3.02,-0.88 3.02,-2.65 0,-1.76 -1.02,-2.64 -3.08,-2.64 H -1.7 Z M 3.97,7.67 c 0.809,0.46 1.38,1.01 1.71,1.63 0.34,0.62 0.5,1.43 0.5,2.44 0,3.6 -2.27,5.4 -6.83,5.4 H -5.67 V -3.22 h 6.859 c 2.121,0 3.801,0.52 5.031,1.56 1.24,1.03 1.85,2.43 1.85,4.2 0,2.79 -1.36,4.49 -4.1,5.13" /></g><g
           transform="translate(192.9395,15.8159)"
           id="g104"><path
             id="path106"
             style="fill:#ffffff;fill-opacity:1;fill-rule:nonzero;stroke:none"
             d="m 0,0 c -0.739,-0.73 -1.619,-1.09 -2.649,-1.09 -1.04,0 -1.931,0.36 -2.65,1.09 -0.721,0.73 -1.08,1.62 -1.08,2.66 0,0.98 0.379,1.83 1.119,2.56 0.75,0.72 1.62,1.09 2.611,1.09 1.03,0 1.91,-0.37 2.649,-1.09 C 0.73,4.49 1.101,3.62 1.101,2.61 1.101,1.6 0.73,0.73 0,0 M 2.791,7.69 C 1.381,9 -0.43,9.66 -2.619,9.66 -4.819,9.66 -6.629,9 -8.06,7.7 -9.489,6.39 -10.209,4.73 -10.209,2.72 c 0,-2.11 0.689,-3.82 2.06,-5.15 1.379,-1.32 3.2,-1.98 5.45,-1.98 2.229,0 4.05,0.65 5.479,1.94 1.421,1.3 2.13,3 2.13,5.11 0,2.05 -0.709,3.73 -2.119,5.05" /></g><g
           transform="translate(210.0303,25.0361)"
           id="g108"><path
             id="path110"
             style="fill:#ffffff;fill-opacity:1;fill-rule:nonzero;stroke:none"
             d="M 0,0 -3.88,-7.38 -7.75,0 h -4.32 l 6.21,-11.14 -3.68,-7.02 h 4.189 L 4.21,0 Z" /></g></g></g></g></svg>